<?xml version="1.0" encoding="UTF-8"?> <svg xmlns="http://www.w3.org/2000/svg" xmlns:xlink="http://www.w3.org/1999/xlink" 
viewBox="0 0 26 26" version="1.1" width="60px" height="60px"> <g id="surface1"> <path style=" " d="M 13 0.1875 C 5.925781 
0.1875 0.1875 5.925781 0.1875 13 C 0.1875 20.074219 5.925781 25.8125 13 25.8125 C 20.074219 25.8125 25.8125 20.074219 
25.8125 13 C 25.8125 5.925781 20.074219 0.1875 13 0.1875 Z M 13.085938 9.441406 C 12.636719 9.441406 12.292969 9.820313 
12.292969 10.367188 C 12.292969 11.058594 12.292969 15.355469 12.292969 15.355469 C 12.292969 15.355469 12.1875 18.433594 
8.972656 18.433594 C 6.242188 18.433594 5.773438 16.089844 5.773438 15.355469 C 5.773438 14.617188 5.773438 13.039063 
5.773438 13.039063 L 8.210938 13.039063 L 8.210938 15.355469 C 8.210938 15.355469 8.210938 16.113281 9.109375 16.113281 C 
10.007813 16.113281 9.941406 15.355469 9.941406 15.355469 L 9.941406 10.367188 C 9.941406 10.367188 9.90625 7.261719 
13.019531 7.261719 C 15.992188 7.261719 16.0625 9.941406 16.0625 10.367188 C 16.0625 10.789063 15.785156 11.378906 
15.058594 11.378906 C 14.332031 11.378906 13.953125 10.929688 13.953125 10.367188 C 13.949219 9.683594 13.535156 9.441406 
13.085938 9.441406 Z M 20.453125 15.355469 C 20.453125 15.355469 20.347656 18.433594 17.132813 18.433594 C 14.402344 
18.433594 13.945313 15.804688 13.945313 15.355469 C 13.945313 14.933594 13.941406 13.285156 13.945313 13.0625 C 13.945313 
13.0625 14.242188 13.472656 15.089844 13.472656 C 15.9375 13.472656 16.371094 13.0625 16.371094 13.0625 L 16.371094 
15.355469 C 16.371094 15.355469 16.371094 16.113281 17.269531 16.113281 C 18.167969 16.113281 18.101563 15.355469 
18.101563 15.355469 L 18.101563 13.0625 L 20.453125 13.0625 C 20.453125 14.246094 20.453125 15.355469 20.453125 15.355469 
Z "/> </g> </svg>
